# xmcd
#
# Track frame offsets:
#	182
#	16067
#	33307
#	57120
#	88817
#	115042
#	133752
#	150492
#	167052
#	192072
#
# Disc length: 2759 seconds
#
# Revision: 0
# Processed by: cddbd v1.5.2PL0 Copyright (c) Steve Scherf et al.
# Submitted via: EasyCDDAExtractor 12.0.4.1
#
DISCID=720ac50a
DTITLE=Cold Sweat (Bkues Inc.) - Downpayment on the blues
DYEAR=1995
DGENRE=Blues
TTITLE0=You're the one
TTITLE1=The Meatman
TTITLE2=Hate to loose
TTITLE3=Downpayment on the blues
TTITLE4=Lonesome blues
TTITLE5=Ain't nobody home
TTITLE6=Right time baby
TTITLE7=Crossin' the line
TTITLE8=Cold sweat
TTITLE9=Real gone
EXTD=
EXTT0=
EXTT1=
EXTT2=
EXTT3=
EXTT4=
EXTT5=
EXTT6=
EXTT7=
EXTT8=
EXTT9=
PLAYORDER=
